# xmcd
#
# Track frame offsets: 
#        150
#        20920
#        36376
#        61900
#        92090
#        111571
#        131828
#        154534
#        172219
#        188984
#        207157
#        228690
#        255874
#
# Disc length: 3812 seconds
#
# Revision: 13
# Processed by: cddbd v1.5.2PL0 Copyright (c) Steve Scherf et al.
# Submitted via: ExactAudioCopy v0.99pb5
#
DISCID=bd0ee20d
DTITLE=John Lee Hooker - The Best of Friends
DYEAR=1998
DGENRE=Blues
TTITLE0=Boogie Chillen
TTITLE1=This Is Hip
TTITLE2=The Healer
TTITLE3=I Cover the Waterfront
TTITLE4=Boom Boom
TTITLE5=I'm in the Mood
TTITLE6=Burnin' Hell
TTITLE7=Tupelo
TTITLE8=Baby Lee
TTITLE9=Dimples
TTITLE10=Chill Out (Things Gonna Change)
TTITLE11=Big Legs Tight Skirt
TTITLE12=Don't Look Back
EXTD=
EXTT0=
EXTT1=
EXTT2=
EXTT3=
EXTT4=
EXTT5=
EXTT6=
EXTT7=
EXTT8=
EXTT9=
EXTT10=
EXTT11=
EXTT12=
PLAYORDER=
